<svg xmlns="http://www.w3.org/2000/svg" width="40" height="33">
    <path fill-rule="evenodd" d="M35.732 26.398a16.289 16.289 0 0 1-2.646 2.502 2.498 2.498 0 0 1-.211.141c-.011.007-.034-.004-.106-.017.088-.112.154-.201.225-.286 1.113-1.326 1.984-2.784 2.49-4.442a8.187 8.187 0 0 0 .365-2.098c.056-1.526-.361-2.923-1.216-4.195-.723-1.074-1.654-1.948-2.68-2.732-1.195-.914-2.484-1.684-3.804-2.405-1.41-.769-2.832-1.518-4.242-2.288-1.005-.548-1.982-1.141-2.893-1.834-.649-.493-1.252-1.033-1.738-1.689-.552-.745-.892-1.564-.886-2.501.009-1.472.643-2.616 1.889-3.417.901-.579 1.908-.805 2.973-.809.648-.002 1.286.077 1.92.196.07.013.137.041.205.115l-.296.014c-.784.036-1.54.192-2.255.518-.835.382-1.513.939-1.882 1.791-.464 1.069-.38 2.119.199 3.129.23.403.532.752.868 1.072a10.139 10.139 0 0 0 1.982 1.454c1.042.593 2.097 1.166 3.154 1.734 1.433.769 2.861 1.545 4.193 2.481 1.368.961 2.606 2.058 3.591 3.413.221.304.415.626.624.939.06.09.129.174.207.278.104-.116.051-.209.02-.285-.158-.381-.307-.766-.492-1.135-.669-1.336-1.618-2.461-2.722-3.464-1.086-.987-2.286-1.823-3.515-2.621-.926-.603-1.867-1.185-2.776-1.811-.582-.401-1.129-.852-1.672-1.304a4.546 4.546 0 0 1-.944-1.118 2.922 2.922 0 0 1-.397-2.187c.25-1.221 1.068-1.92 2.223-2.286.521-.165 1.059-.204 1.603-.167.112.008.226.03.333.066 3.142 1.069 5.887 2.744 8.093 5.226 1.948 2.191 3.214 4.722 3.659 7.609.716 4.631-.413 8.787-3.443 12.413zM14.693 1.856c-1.095.737-1.998 1.655-2.512 2.875-.904 2.147-.664 4.194.677 6.104.563.801 1.299 1.436 2.096 2.003a18.46 18.46 0 0 0 3.285 1.838c1.619.71 3.253 1.387 4.881 2.075 1.264.533 2.519 1.085 3.715 1.757 1.068.599 2.074 1.28 2.923 2.168.973 1.019 1.598 2.209 1.74 3.611.169 1.666-.175 3.226-1.104 4.639-1.071 1.627-2.582 2.694-4.419 3.323-1.537.526-3.111.646-4.704.283-1.185-.27-2.182-.852-2.889-1.854-.659-.931-.927-1.966-.724-3.09.158-.879.614-1.563 1.463-1.946.024-.011.045-.031.086-.06-.129-.11-.278-.119-.421-.132-1.315-.115-2.423.674-2.683 1.958-.264 1.305.026 2.513.786 3.605.572.823 1.338 1.421 2.256 1.834.091.041.174.101.261.152h-.284c-.075-.034-.147-.077-.226-.103-1.735-.565-3.047-1.641-3.93-3.217-.54-.962-.755-1.997-.585-3.091.32-2.06 2.231-3.578 4.379-3.359.082.008.164.008.26.012-.005-.265-.113-.473-.227-.676-.449-.801-1.13-1.35-1.967-1.717-.789-.346-1.616-.443-2.474-.35-1.025.112-1.955.449-2.739 1.121-1.208 1.035-1.785 2.385-1.873 3.931-.103 1.815.514 3.384 1.802 4.689.846.857 1.857 1.474 2.95 1.972.083.038.164.079.246.119a.279.279 0 0 1-.192.023c-2.732-.694-5.254-1.828-7.462-3.578C3.508 25.94 1.412 22.3 1.023 17.748c-.016-.184-.071-.365-.108-.548v-1.405c.037-.173.093-.344.107-.518.372-4.399 2.351-7.965 5.751-10.779 2.331-1.93 5.021-3.16 7.964-3.871a22.98 22.98 0 0 1 5.007-.626c.028 0 .056.005.093.049-.093.015-.185.033-.279.046-1.75.24-3.394.771-4.865 1.76z"/>
</svg>
