<svg xmlns="http://www.w3.org/2000/svg" width="38" height="26">
    <path fill-rule="evenodd" d="M36.629 15.451c-1.198.094-3.625 1.086-4.791 1.489-1.167.404-2.112.466-3.752.466-1.639.001-3.278-.559-4.286-.993-1.009-.434-2.302-.931-4.792-.962-2.49-.03-3.846.59-5.485 1.21-1.639.621-2.049.714-4.539.745-2.49.031-4.665-1.179-6.052-1.583C1.545 15.42 0 15.42 0 15.42v-1.987s1.545 0 2.932.403c1.387.404 3.562 1.614 6.052 1.583 2.49-.031 2.9-.124 4.539-.745 1.639-.62 2.995-1.24 5.485-1.21 2.49.031 3.783.527 4.792.962 1.008.434 2.647.994 4.286.993 1.64 0 2.585-.063 3.752-.466 1.166-.403 3.593-1.395 4.791-1.489 1.198-.093 1.371 0 1.371 0v1.987s-.173-.093-1.371 0zm0-4.16c-1.198.094-3.625 1.086-4.791 1.489-1.167.403-2.112.465-3.752.466-1.639 0-3.278-.559-4.286-.993-1.009-.435-2.302-.931-4.792-.962-2.49-.031-3.846.589-5.485 1.21-1.639.62-2.049.713-4.539.744-2.49.031-4.665-1.179-6.052-1.582C1.545 11.26 0 11.26 0 11.26V9.273s1.545 0 2.932.403 3.562 1.613 6.052 1.582c2.49-.031 2.9-.124 4.539-.744 1.639-.621 2.995-1.241 5.485-1.21 2.49.031 3.783.527 4.792.961 1.008.435 2.647.994 4.286.994 1.64-.001 2.585-.063 3.752-.466 1.166-.403 3.593-1.396 4.791-1.489 1.198-.093 1.371 0 1.371 0v1.987s-.173-.093-1.371 0zm0-4.284c-1.198.093-3.625 1.085-4.791 1.488-1.167.404-2.112.466-3.752.466-1.639.001-3.278-.559-4.286-.993-1.009-.434-2.302-.931-4.792-.961-2.49-.031-3.846.589-5.485 1.209-1.639.621-2.049.714-4.539.745-2.49.031-4.665-1.179-6.052-1.582C1.545 6.975 0 6.975 0 6.975V4.988s1.545 0 2.932.404c1.387.403 3.562 1.613 6.052 1.582 2.49-.031 2.9-.124 4.539-.745 1.639-.62 2.995-1.24 5.485-1.21 2.49.031 3.783.528 4.792.962 1.008.434 2.647.994 4.286.993 1.64 0 2.585-.062 3.752-.466 1.166-.403 3.593-1.395 4.791-1.489 1.198-.093 1.371 0 1.371 0v1.988s-.173-.094-1.371 0zm0-4.161c-1.198.094-3.625 1.086-4.791 1.489-1.167.403-2.112.465-3.752.466-1.639 0-3.278-.559-4.286-.993-1.009-.435-2.302-.931-4.792-.962-2.49-.031-3.846.589-5.485 1.21-1.639.62-2.049.713-4.539.744-2.49.031-4.665-1.179-6.052-1.582C1.545 2.815 0 2.815 0 2.815V.828s1.545 0 2.932.403 3.562 1.613 6.052 1.582c2.49-.031 2.9-.124 4.539-.744 1.639-.621 2.995-1.241 5.485-1.21 2.49.031 3.783.527 4.792.961 1.008.435 2.647.994 4.286.994 1.64-.001 2.585-.063 3.752-.466 1.166-.403 3.593-1.395 4.791-1.489 1.198-.093 1.371 0 1.371 0v1.987s-.173-.093-1.371 0zM1.04 20.71c.189-.342.757-.528 1.293-.497.536.031.945.357 1.15.853.205.497.126.978.126 1.676s-.063.868-.173 1.147c-.11.28-.426.714-1.214.745-.788.031-1.182-.419-1.182-.419v1.582H0v-5.506h1.04v.419zm0 2.303c0 .415.342.752.765.752a.758.758 0 0 0 .764-.752v-1.101a.758.758 0 0 0-.764-.753.759.759 0 0 0-.765.753v1.101zm4.177.008c0 .45.534.75.881.674.601-.131.585-.691.585-.691v-2.713h1.04v4.344H6.651v-.466c-.378.481-1.087.465-1.087.465-1.198.047-1.45-1.117-1.45-1.412v-2.931h1.103v2.73zm3.278-4.328h1.009v4.638s.079.372.347.372c.268 0 .441.016.441.016v.916h-.82s-.378.03-.693-.358c-.315-.388-.284-.744-.284-1.008v-4.576zm3.217 4.638s.079.372.347.372c.268 0 .441.016.441.016v.916h-.819s-.378.03-.694-.358c-.315-.388-.283-.744-.283-1.008v-4.576h1.008v4.638zm2.268-2.637s.373-.413 1.072-.413c.93 0 1.198.537 1.198.537s.218-.584 1.513-.527c1.413.062 1.371 1.373 1.371 1.373v2.972h-1.088V21.78c0-.791-1.465-.807-1.465 0v2.856h-1.072V21.78c0-.786-1.466-.786-1.466 0v2.856h-1.135v-4.345l1.072-.01v.413zm6.935 1.365h1.072v-.465s-.026-.497-.794-.486c-.693.009-.861.393-.861.393l-.678-.683c.315-.465 1.202-.697 2.27-.537 1.166.175 1.166 1.251 1.166 1.251v3.104h-1.089v-.39c-.286.388-1.018.39-1.259.39-.263 0-.709-.037-1.035-.518-.266-.393-.352-1.221.073-1.66.426-.438 1.135-.399 1.135-.399zm-.095 1.706c.19.078.552.155.915-.077.397-.255.252-.915.252-.915h-.867s-.413-.043-.587.276c-.17.313.098.639.287.716zm4.052-3.008c.378-.481 1.087-.465 1.087-.465 1.198-.046 1.45 1.117 1.45 1.412v2.931h-1.103v-2.73c.031-.575-.534-.75-.881-.674-.601.131-.585.691-.585.691v2.713H23.8v-4.344h1.072v.466zm3.309-1.614h1.087v1.256h.789v.822h-.789v2.157s.048.31.316.31h.473v.915h-.93s-.347 0-.647-.388c-.256-.332-.268-.574-.268-.822v-2.141h-.504v-.837l.473-.031v-1.241zm3.41 3.878c0 .45.534.75.881.674.6-.131.585-.691.585-.691v-2.713h1.04v4.344h-1.072v-.466c-.378.48-1.087.465-1.087.465-1.198.047-1.45-1.117-1.45-1.412v-2.931h1.103v2.73zm4.266-2.265s.204-.541 1.119-.543c.74-.001 1.024.435 1.024.435l-.804.791s-.205-.28-.615-.264c-.599.023-.724.651-.724.651v2.809h-1.072v-4.344h1.072v.465z"/>
</svg>
