<svg xmlns="http://www.w3.org/2000/svg" width="35" height="38">
    <path fill="#040000" fill-rule="evenodd" d="M18.314 0c1.851 1.788 3.934 3.576 5.554 5.141L21.785 7.6v.223l5.322 2.236L30.81 7.6l-2.314-2.459v-.223c2.314-1.565 4.165-3.13 6.48-4.471l-1.157 10.729H2.115L.958.447c2.314 1.341 4.165 2.906 6.479 4.471v.223L5.123 7.6l3.703 2.459 5.322-2.236V7.6l-2.082-2.459C14.38 3.353 16.231 1.565 18.314 0zm15.059 14.157l-.23 3.74H21.409v12.857h5.752c1.381 0 2.531-1.403 2.301-2.338-.23-1.403-1.38-2.104-2.531-2.805.23 0 4.141-2.805 5.982-4.208 0 .701-1.38 11.221-1.38 11.454L17.958 38h-.23L4.154 32.857c0-.233-1.38-10.753-1.38-11.454 1.84 1.169 5.751 4.208 5.981 4.208-1.15.701-2.3 1.402-2.53 2.805-.23.935 1.15 2.338 2.3 2.338h5.752V17.897H2.544l-.231-3.74h31.06z"/>
</svg>
