<?xml version="1.0" encoding="UTF-8"?>
<svg width="38px" height="38px" viewBox="0 0 38 38" version="1.1" xmlns="http://www.w3.org/2000/svg" xmlns:xlink="http://www.w3.org/1999/xlink">
    <!-- Generator: Sketch 51.3 (57544) - http://www.bohemiancoding.com/sketch -->
    <title>Azamara_icon-black&amp;white</title>
    <desc>Created with Sketch.</desc>
    <defs></defs>
    <g id="Azamara_icon-black&amp;white" stroke="none" stroke-width="1" fill="none" fill-rule="evenodd">
        <rect fill="#FFFFFF" x="0" y="0" width="38" height="38"></rect>
        <g id="Icons/Aza-Logo">
            <g id="Azmara" transform="translate(0.140440, 0.023231)">
                <path d="M7.2884076,6.05832917 C10.1621903,2.79000667 14.1109606,0.716478391 18.4832082,0.558479392 C18.6438678,0.551097329 18.8052347,0.547741458 18.9672584,0.5484813 C18.9782063,0.548459126 18.9891587,0.548480257 19.0001156,0.548544768 C19.0081174,0.548591866 19.0161165,0.548662055 19.024113,0.548755305 C19.0523549,0.548759077 19.080613,0.548842769 19.1088873,0.549006573 C23.9490756,0.577532261 28.2890101,2.94687854 31.280125,6.69547366 C34.9679905,9.74851155 37.2704105,14.1414719 37.2425607,19.0105792 C37.2424448,19.0306397 37.2422895,19.0506917 37.2420948,19.0707351 C37.2421909,19.0870018 37.2421933,19.1032785 37.2421017,19.1195651 C37.2419109,19.1513325 37.2413628,19.1830583 37.240459,19.2147416 C37.2387571,19.3414516 37.2346017,19.4677277 37.2280257,19.5935467 C37.0330792,24.0087332 34.9231853,27.9753152 31.6300174,30.8386901 C28.5864844,34.9184799 24.0049284,37.5027792 18.8959333,37.4721517 C18.8808873,37.472063 18.8658461,37.4719517 18.8508097,37.4718178 C18.8227293,37.4718982 18.7946289,37.4718557 18.7665087,37.4716899 C18.5828533,37.4706068 18.4001008,37.4642719 18.2183233,37.4527872 C13.6029438,37.2157955 9.48839728,34.8481689 6.63381704,31.2093568 C3.04126427,28.290122 0.731870355,24.1121916 0.556583298,19.4550869 C0.54820031,19.2830414 0.544348359,19.110187 0.545110762,18.9365827 C0.54509144,18.9258475 0.545112983,18.9151079 0.54517546,18.904364 C0.545287873,18.8856378 0.545524351,18.866926 0.545884522,18.8482289 C0.545924663,18.8309259 0.545994263,18.8136168 0.546093365,18.7963017 C0.576018621,13.6540292 3.19796215,9.07336127 7.2884076,6.05832917 Z" id="Combined-Shape" stroke="#000000" fill="#000000"></path>
                <path d="M22.0727138,19.0294356 C22.0136944,29.3018213 20.5316535,37.6229487 18.7652893,37.6121084 C17.0003303,37.602682 15.6152497,29.2645872 15.6747375,18.9912588 C15.7346936,8.71793036 17.2157977,0.398688283 18.9807567,0.40858597 C20.7471209,0.419426295 22.1326699,8.75516452 22.0727138,19.0294356 Z M27.7409114,19.0624279 C27.6804868,29.4672541 23.6685777,37.8807599 18.784494,37.8520095 C13.9018156,37.823259 9.98639834,29.3645067 10.0468229,18.9582665 C10.1077158,8.5529689 14.1191566,0.139463131 19.0023034,0.168213557 C23.8868555,0.196963983 27.8008675,8.65618765 27.7409114,19.0624279 Z M32.3411402,19.0888217 C32.281184,29.4950619 26.1998511,37.8958421 18.7638841,37.8520095 C11.3316643,37.8081768 5.34822854,29.3371702 5.40912149,18.93093 C5.46860923,8.5246898 11.5494737,0.124852259 18.9812251,0.168213557 C26.4167237,0.211103537 32.4010963,8.68352412 32.3411402,19.0888217 Z M35.8064179,19.1090884 C35.7464618,29.5153286 28.1732514,37.9080964 18.895975,37.8524808 C9.62104058,37.7978078 2.14479052,29.3192601 2.20474666,18.9125486 C2.2647028,8.5067797 9.83885001,0.114954572 19.113316,0.168684876 C28.390124,0.223357817 35.8663741,8.70331949 35.8064179,19.1090884 Z M18.9123692,15.8117445 C29.1236499,15.8720732 37.3924453,17.3623822 37.3826087,19.1406667 C37.3723038,20.9175373 29.0866458,22.3093407 18.8748966,22.2499546 C8.66361592,22.1900971 0.394820574,20.7007308 0.405593944,18.9233889 C0.415430498,17.1455757 8.7006201,15.7523583 18.9123692,15.8117445 Z M18.9451577,10.1097338 C29.2871241,10.1700625 37.6477273,14.2054912 37.6200913,19.121814 C37.5905816,24.0353089 29.1840745,27.9731746 18.8430449,27.9137885 C8.49873652,27.8525171 0.138601741,23.8156745 0.167174591,18.9021796 C0.196684256,13.9863281 8.60319137,10.0489337 18.9451577,10.1097338 Z M18.9723254,5.48044388 C29.3133549,5.54124396 37.6627163,11.6613141 37.6191544,19.1416094 C37.5765294,26.6214333 29.1573753,32.64017 18.8149405,32.5798412 C8.47297412,32.5195124 0.12454952,26.4008562 0.167174591,18.921975 C0.210736477,11.4416797 8.62942218,5.42011512 18.9723254,5.48044388 Z M18.9929353,1.99362994 C29.3334964,2.0539587 37.6739581,9.67470683 37.6205597,19.0105828 C37.5666928,28.340803 29.138639,35.8649308 18.7966726,35.8031881 C8.45376941,35.7428594 0.114712965,28.1216399 0.168111406,18.7918911 C0.222446661,9.45507243 8.64956369,1.93235854 18.9929353,1.99362994 Z" id="Stroke-1" stroke="#FFFFFF" stroke-width="0.2"></path>
                <polygon id="Fill-3" fill="#FFFFFF" points="16.8084238 1.23970894 15.1020158 9.47976952 18.3888303 9.49909357"></polygon>
                <polygon id="Fill-5" fill="#FFFFFF" points="16.6833122 17.7390599 18.3887835 9.49899931 15.1019689 9.47967525"></polygon>
                <polygon id="Fill-7" fill="#FFFFFF" points="8.56070682 9.44149846 16.7512781 11.157569 16.7704828 7.85126999"></polygon>
                <polygon id="Fill-9" fill="#FFFFFF" points="24.9588526 9.56668064 16.7706234 7.85108146 16.7509502 11.1578518"></polygon>
                <path d="M17.9720883,7.32471301 C17.9720883,7.32471301 18.1285363,8.13538075 19.0344362,8.32532209 L17.9018272,8.37103998 L17.9720883,7.32471301 Z" id="Fill-11" fill="#FFFFFF"></path>
                <path d="M14.5738396,8.27404264 C14.5738396,8.27404264 15.3795003,8.11662228 15.5673317,7.20603502 L15.6132356,8.34521173 L14.5738396,8.27404264 Z" id="Fill-13" fill="#FFFFFF"></path>
                <path d="M17.947169,11.6878494 C17.947169,11.6878494 18.1129852,10.8795382 19.0207587,10.7004372 L17.8890865,10.6405797 L17.947169,11.6878494 Z" id="Fill-15" fill="#FFFFFF"></path>
                <path d="M14.5603495,10.6987404 C14.5603495,10.6987404 15.3636681,10.8655872 15.5411945,11.778531 L15.6002139,10.638883 L14.5603495,10.6987404 Z" id="Fill-17" fill="#FFFFFF"></path>
                <polygon id="Fill-19" fill="#FFFFFF" points="8.45367573 14.5238196 7.403038 19.5989768 9.42655784 19.6102884"></polygon>
                <polygon id="Fill-21" fill="#FFFFFF" points="8.37638852 24.6850214 9.42655784 19.6103356 7.403038 19.5990239"></polygon>
                <polygon id="Fill-23" fill="#FFFFFF" points="3.37487512 19.5753166 8.4186857 20.6320126 8.42992748 18.5954455"></polygon>
                <polygon id="Fill-25" fill="#FFFFFF" points="13.4739723 19.6521886 8.43016168 18.5954927 8.4189199 20.6315884"></polygon>
                <path d="M9.17071374,18.2720739 C9.17071374,18.2720739 9.26626884,18.7712002 9.82461043,18.8876158 L9.12715185,18.9163663 L9.17071374,18.2720739 Z" id="Fill-27" fill="#FFFFFF"></path>
                <path d="M7.07749487,18.8561318 C7.07749487,18.8561318 7.57353828,18.7590402 7.6892349,18.1986425 L7.71780775,18.900907 L7.07749487,18.8561318 Z" id="Fill-29" fill="#FFFFFF"></path>
                <path d="M9.15492841,20.9577408 C9.15492841,20.9577408 9.25657281,20.4600285 9.81631962,20.34974 L9.11932945,20.3139198 L9.15492841,20.9577408 Z" id="Fill-31" fill="#FFFFFF"></path>
                <path d="M7.06906354,20.3492686 C7.06906354,20.3492686 7.56463854,20.4520161 7.67330905,21.0138277 L7.70937642,20.3125058 L7.06906354,20.3492686 Z" id="Fill-33" fill="#FFFFFF"></path>
                <path d="M30.0528296,14.7201238 C29.7989528,14.2539898 29.7005873,13.9726127 29.7062082,13.7887985 C29.7104239,13.6441037 29.7647591,13.5225036 30.0907706,13.3806367 L30.2617393,13.3094676 L30.2650182,12.6967536 L30.2673602,12.4243316 L23.6501693,12.3852121 L23.646422,13.0893619 L23.6450168,13.2698769 L23.8145803,13.3434026 C24.1382498,13.4871547 24.1897746,13.6115828 24.194927,13.7572202 C24.2010163,13.9174684 24.0520628,14.2648302 23.8351902,14.6871315 L15.71488,30.9306508 C15.3293807,31.6875882 15.0455258,32.0462616 14.0773278,32.3860822 L13.8946489,32.4440543 L13.8932437,32.6405941 L13.8913701,33.1057855 L13.8899649,33.3763223 L19.7408413,33.4093145 L19.745057,32.6750004 L19.7464622,32.4916575 L19.5754935,32.4219024 C19.2316825,32.265896 19.2031097,32.1853005 19.196552,32.0500321 C19.1857786,31.8643326 19.3698627,31.5221554 19.593293,31.1286045 L21.1123381,28.0386407 L32.412666,28.1046253 L33.3761799,30.0172356 C34.1200109,29.0929801 34.6928731,28.3077636 35.2718246,27.3373189 C35.5303855,26.9041772 35.7229009,26.6482513 35.8629547,26.1543095 L30.0528296,14.7201238 Z M22.6735399,24.7271573 L26.7444684,16.6449884 L30.7549723,24.7747604 L22.6735399,24.7271573 Z" id="Fill-35" fill="#FFFFFF"></path>
            </g>
        </g>
    </g>
</svg>