<?xml version="1.0" encoding="UTF-8"?>
<svg width="149px" height="48px" viewBox="0 0 149 48" version="1.1" xmlns="http://www.w3.org/2000/svg" xmlns:xlink="http://www.w3.org/1999/xlink">
    <!-- Generator: Sketch 51.3 (57544) - http://www.bohemiancoding.com/sketch -->
    <title>Extra crew cabin request-logo</title>
    <desc>Created with Sketch.</desc>
    <defs>
        <polygon id="path-1" points="0.398849055 0 111.6998 0 111.6998 34.5998 0.398849055 34.5998"></polygon>
        <polygon id="path-3" points="0 0.6996 4.2999 0.6996 4.2999 6.6996 0 6.6996"></polygon>
        <polygon id="path-5" points="0 48 149 48 149 0 0 0"></polygon>
    </defs>
    <g id="Page-1" stroke="none" stroke-width="1" fill="none" fill-rule="evenodd">
        <g id="Extra-crew-cabin-request-logo">
            <g id="Group-3" transform="translate(18.000000, 0.000000)">
                <mask id="mask-2" fill="white">
                    <use xlink:href="#path-1"></use>
                </mask>
                <g id="Clip-2"></g>
                <path d="M22.3998,15.8998 C22.2998,13.6998 20.7998,10.9998 17.0998,10.9998 C13.6998,10.9998 12.0998,13.6998 11.8998,15.8998 L22.3998,15.8998 Z M17.8998,23.8998 C19.7998,23.8998 21.8998,23.1998 23.1998,21.7998 L24.9998,24.4998 C23.0998,26.2998 20.3998,27.1998 17.4998,27.1998 C11.8998,27.1998 7.7998,23.2998 7.7998,17.3998 C7.7998,11.9998 11.6998,7.5998 17.1998,7.5998 C22.7998,7.5998 26.2998,11.7998 26.2998,17.6998 L26.2998,18.6998 L11.9998,18.6998 C12.2998,21.5998 14.3998,23.8998 17.8998,23.8998 Z M17.5998,1.5998 C8.8998,1.5998 1.8998,8.6998 1.8998,17.3998 C1.8998,26.0998 8.9998,33.1998 17.5998,33.1998 C26.2998,33.1998 33.2998,26.0998 33.2998,17.3998 C33.2998,8.6998 26.1998,1.5998 17.5998,1.5998 Z M17.5998,34.5998 C8.0998,34.5998 0.3998,26.8998 0.3998,17.2998 C0.2998,7.7998 8.0998,0.0998 17.5998,0.0998 C27.0998,0.0998 34.7998,7.7998 34.7998,17.3998 C34.7998,26.8998 26.9998,34.5998 17.5998,34.5998 Z M56.7998,23.6998 C58.5998,23.6998 60.0008,22.8998 61.0998,21.4998 L63.7998,23.9998 C62.5008,25.6998 60.2998,27.2998 56.6998,27.2998 C51.0998,27.2998 47.0998,23.0998 47.0998,17.4998 C47.0998,11.8998 51.0998,7.6998 56.6998,7.6998 C60.3998,7.6998 62.5008,9.1998 63.7998,10.9998 L61.0998,13.3998 C60.0998,11.8998 58.5998,11.1998 56.7998,11.1998 C53.3998,11.1998 51.1998,13.6998 51.1998,17.3998 C51.1998,21.0998 53.4998,23.6998 56.7998,23.6998 Z M56.0998,1.5998 C47.3998,1.5998 40.3998,8.6998 40.3998,17.3998 C40.3998,26.0998 47.4998,33.1998 56.0998,33.1998 C64.7998,33.1998 71.8998,26.0998 71.8998,17.3998 C71.8998,8.6998 64.7998,1.5998 56.0998,1.5998 Z M56.0998,34.5998 C46.5998,34.5998 38.8998,26.8998 38.8998,17.2998 C38.8998,7.7998 46.5998,0.0998 56.0998,0.0998 C65.5998,0.0998 73.2998,7.7998 73.2998,17.3998 C73.3998,26.8998 65.5998,34.5998 56.0998,34.5998 Z M95.1998,23.6998 C97.0008,23.6998 98.3998,22.8998 99.5008,21.4998 L102.1998,23.9998 C100.8998,25.6998 98.6998,27.2998 95.0998,27.2998 C89.5008,27.2998 85.5008,23.0998 85.5008,17.4998 C85.5008,11.8998 89.5008,7.6998 95.0998,7.6998 C98.7998,7.6998 100.8998,9.1998 102.1998,10.9998 L99.5008,13.3998 C98.5008,11.8998 97.0008,11.1998 95.1998,11.1998 C91.8998,11.1998 89.5998,13.6998 89.5998,17.3998 C89.5998,21.0998 91.7998,23.6998 95.1998,23.6998 Z M94.5008,1.5998 C85.7998,1.5998 78.7998,8.6998 78.7998,17.3998 C78.7998,26.0998 85.8998,33.1998 94.5008,33.1998 C103.1998,33.1998 110.1998,26.0998 110.1998,17.3998 C110.1998,8.6998 103.0998,1.5998 94.5008,1.5998 Z M94.5008,34.5998 C85.0008,34.5998 77.2998,26.8998 77.2998,17.2998 C77.2998,7.7998 85.0008,-0.0002 94.5008,-0.0002 C104.0008,-0.0002 111.6998,7.6998 111.6998,17.2998 C111.6998,26.8998 104.0008,34.5998 94.5008,34.5998 Z" id="Fill-1" fill="#0C2248" mask="url(#mask-2)"></path>
            </g>
            <g id="Group-6" transform="translate(0.000000, 41.000000)">
                <mask id="mask-4" fill="white">
                    <use xlink:href="#path-3"></use>
                </mask>
                <g id="Clip-5"></g>
                <polygon id="Fill-4" fill="#0C2248" mask="url(#mask-4)" points="-0.0001 6.6996 -0.0001 0.6996 4.2999 0.6996 4.2999 1.8006 1.2999 1.8006 1.2999 3.0996 4.1999 3.0996 4.1999 4.1996 1.2999 4.1996 1.2999 5.5996 4.2999 5.5996 4.2999 6.6996"></polygon>
            </g>
            <polygon id="Fill-7" fill="#0C2248" points="10.1 47.6996 8.6 45.5006 7.1 47.6996 5.5 47.6996 7.7 44.5996 5.6 41.6996 7.1 41.6996 8.5 43.8006 9.9 41.6996 11.4 41.6996 9.3 44.5996 11.5 47.6996"></polygon>
            <polygon id="Fill-9" fill="#0C2248" points="14.4999 47.6996 14.4999 42.8006 12.6999 42.8006 12.6999 41.6996 17.4999 41.6996 17.4999 42.8006 15.6999 42.8006 15.6999 47.6996"></polygon>
            <path d="M22.8002,43.6 C22.8002,43.1 22.4002,42.8 21.9002,42.8 L20.6002,42.8 L20.6002,44.4 L21.9002,44.4 C22.4002,44.4 22.8002,44.1 22.8002,43.6 Z M22.7002,47.7 L21.5002,45.6 L20.6002,45.6 L20.6002,47.7 L19.3002,47.7 L19.3002,41.7 L22.1002,41.7 C23.4002,41.7 24.1002,42.5 24.1002,43.6 C24.1002,44.7 23.4002,45.2 22.8002,45.4 L24.2002,47.7 L22.7002,47.7 Z" id="Fill-11" fill="#0C2248"></path>
            <path d="M28.4999,42.8998 L27.5999,45.5008 L29.4999,45.5008 L28.4999,42.8998 Z M30.1999,47.6998 L29.7999,46.6998 L27.1999,46.6998 L26.7999,47.6998 L25.2999,47.6998 L27.5999,41.6998 L29.1999,41.6998 L31.4999,47.6998 L30.1999,47.6998 Z" id="Fill-13" fill="#0C2248"></path>
            <path d="M35.9999,44.6996 C35.9999,42.8006 37.3999,41.5996 39.1999,41.5996 C40.4999,41.5996 41.2999,42.3006 41.6999,43.0996 L40.5999,43.5996 C40.2999,43.0996 39.7999,42.6996 39.1999,42.6996 C38.0999,42.6996 37.2999,43.5006 37.2999,44.6996 C37.2999,45.8006 38.0999,46.6996 39.1999,46.6996 C39.7999,46.6996 40.3999,46.3006 40.5999,45.8006 L41.6999,46.3006 C41.2999,47.0996 40.4999,47.8006 39.1999,47.8006 C37.3999,47.8006 35.9999,46.5006 35.9999,44.6996" id="Fill-15" fill="#0C2248"></path>
            <path d="M46.9999,43.6 C46.9999,43.1 46.5999,42.8 46.0999,42.8 L44.7999,42.8 L44.7999,44.4 L46.0999,44.4 C46.5999,44.4 46.9999,44.1 46.9999,43.6 Z M46.7999,47.7 L45.5999,45.6 L44.6999,45.6 L44.6999,47.7 L43.3999,47.7 L43.3999,41.7 L46.1999,41.7 C47.4999,41.7 48.1999,42.5 48.1999,43.6 C48.1999,44.7 47.4999,45.2 46.8999,45.4 L48.2999,47.7 L46.7999,47.7 Z" id="Fill-17" fill="#0C2248"></path>
            <polygon id="Fill-19" fill="#0C2248" points="50.1 47.6996 50.1 41.6996 54.4 41.6996 54.4 42.8006 51.4 42.8006 51.4 44.0996 54.3 44.0996 54.3 45.1996 51.4 45.1996 51.4 46.5996 54.4 46.5996 54.4 47.6996"></polygon>
            <polygon id="Fill-21" fill="#0C2248" points="60.8998 47.6996 59.7998 43.5996 58.7998 47.6996 57.3998 47.6996 55.6998 41.6996 57.0998 41.6996 58.1998 46.0996 59.2998 41.6996 60.2998 41.6996 61.3998 46.0996 62.3998 41.6996 63.7998 41.6996 62.0998 47.6996"></polygon>
            <path d="M68.4999,44.6996 C68.4999,42.8006 69.8999,41.5996 71.6999,41.5996 C72.9999,41.5996 73.7999,42.3006 74.1999,43.0996 L73.0999,43.5996 C72.7999,43.0996 72.2999,42.6996 71.6999,42.6996 C70.5999,42.6996 69.7999,43.5006 69.7999,44.6996 C69.7999,45.8006 70.5999,46.6996 71.6999,46.6996 C72.2999,46.6996 72.8999,46.3006 73.0999,45.8006 L74.1999,46.3006 C73.7999,47.0996 72.9999,47.8006 71.6999,47.8006 C69.8999,47.8006 68.4999,46.5006 68.4999,44.6996" id="Fill-23" fill="#0C2248"></path>
            <path d="M78.3002,42.8998 L77.4002,45.5008 L79.3002,45.5008 L78.3002,42.8998 Z M80.0002,47.6998 L79.6002,46.6998 L77.0002,46.6998 L76.6002,47.6998 L75.1002,47.6998 L77.4002,41.6998 L79.1002,41.6998 L81.4002,47.6998 L80.0002,47.6998 Z" id="Fill-25" fill="#0C2248"></path>
            <path d="M86.6,45.8998 C86.6,45.5008 86.3,45.1998 85.8,45.1998 L84.1,45.1998 L84.1,46.5998 L85.8,46.5998 C86.3,46.5998 86.6,46.2998 86.6,45.8998 Z M86.5,43.3998 C86.5,43.0008 86.2,42.6998 85.8,42.6998 L84.2,42.6998 L84.2,44.0998 L85.8,44.0998 C86.2,44.0998 86.5,43.7998 86.5,43.3998 Z M82.9,47.6998 L82.9,41.6998 L86.1,41.6998 C87.2,41.6998 87.8,42.3998 87.8,43.1998 C87.8,44.0008 87.3,44.5008 86.8,44.5998 C87.4,44.6998 88,45.2998 88,46.0998 C88,47.0008 87.4,47.6998 86.2,47.6998 L82.9,47.6998 Z" id="Fill-27" fill="#0C2248"></path>
            <mask id="mask-6" fill="white">
                <use xlink:href="#path-5"></use>
            </mask>
            <g id="Clip-30"></g>
            <polygon id="Fill-29" fill="#0C2248" mask="url(#mask-6)" points="89.8 47.7 91.1 47.7 91.1 41.7 89.8 41.7"></polygon>
            <polygon id="Fill-31" fill="#0C2248" mask="url(#mask-6)" points="97.3998 47.6996 94.5008 43.8006 94.5008 47.6996 93.1998 47.6996 93.1998 41.6996 94.5008 41.6996 97.2998 45.5006 97.2998 41.6996 98.5998 41.6996 98.5998 47.6996"></polygon>
            <path d="M107.5004,43.6 C107.5004,43.1 107.1004,42.8 106.6004,42.8 L105.3004,42.8 L105.3004,44.4 L106.6004,44.4 C107.1004,44.4 107.5004,44.1 107.5004,43.6 Z M107.3004,47.7 L106.1004,45.6 L105.1994,45.6 L105.1994,47.7 L103.8994,47.7 L103.8994,41.7 L106.6994,41.7 C108.0004,41.7 108.6994,42.5 108.6994,43.6 C108.6994,44.7 108.0004,45.2 107.3994,45.4 L108.8004,47.7 L107.3004,47.7 Z" id="Fill-32" fill="#0C2248" mask="url(#mask-6)"></path>
            <polygon id="Fill-33" fill="#0C2248" mask="url(#mask-6)" points="110.6 47.6996 110.6 41.6996 114.9 41.6996 114.9 42.8006 111.9 42.8006 111.9 44.0996 114.8 44.0996 114.8 45.1996 111.9 45.1996 111.9 46.5996 114.9 46.5996 114.9 47.6996"></polygon>
            <path d="M120.3002,46.6 L119.6002,45.8 L120.5002,45.1 L121.1992,45.9 C121.4002,45.6 121.5002,45.2 121.5002,44.7 C121.5002,43.6 120.8002,42.7 119.6992,42.7 C118.6002,42.7 117.9002,43.6 117.9002,44.7 C117.9002,45.8 118.6002,46.7 119.6992,46.7 C119.9002,46.6 120.1002,46.6 120.3002,46.6 M116.5002,44.7 C116.5002,42.9 117.8002,41.6 119.6002,41.6 C121.4002,41.6 122.8002,42.9 122.8002,44.7 C122.8002,45.6 122.5002,46.3 122.0002,46.8 L122.4002,47.3 L121.5002,48 L121.0002,47.4 C120.6002,47.6 120.1002,47.7 119.6002,47.7 C117.9002,47.8 116.5002,46.5 116.5002,44.7" id="Fill-34" fill="#0C2248" mask="url(#mask-6)"></path>
            <path d="M124.6,45.3002 L124.6,41.6992 L125.9,41.6992 L125.9,45.3002 C125.9,46.1002 126.4,46.6992 127.3,46.6992 C128.2,46.6992 128.7,46.1002 128.7,45.3002 L128.7,41.6992 L130,41.6992 L130,45.3002 C130,46.8002 129.1,47.8002 127.3,47.8002 C125.5,47.8002 124.6,46.8002 124.6,45.3002" id="Fill-35" fill="#0C2248" mask="url(#mask-6)"></path>
            <polygon id="Fill-36" fill="#0C2248" mask="url(#mask-6)" points="132.1996 47.6996 132.1996 41.6996 136.5006 41.6996 136.5006 42.8006 133.5006 42.8006 133.5006 44.0996 136.3996 44.0996 136.3996 45.1996 133.5006 45.1996 133.5006 46.5996 136.5006 46.5996 136.5006 47.6996"></polygon>
            <path d="M138.0004,46.8002 L138.6994,45.8002 C139.1004,46.1992 139.8004,46.6002 140.6004,46.6002 C141.3004,46.6002 141.6004,46.3002 141.6004,45.9002 C141.6004,44.8002 138.1004,45.6002 138.1004,43.3002 C138.1004,42.3002 139.0004,41.5002 140.3994,41.5002 C141.3994,41.5002 142.1994,41.8002 142.8004,42.3002 L142.1004,43.1992 C141.6004,42.6992 141.0004,42.5002 140.3004,42.5002 C139.6994,42.5002 139.3994,42.6992 139.3994,43.1002 C139.3994,44.1002 142.8994,43.4002 142.8994,45.6992 C142.8994,46.8002 142.1004,47.6002 140.5004,47.6002 C139.3004,47.8002 138.5004,47.4002 138.0004,46.8002" id="Fill-37" fill="#0C2248" mask="url(#mask-6)"></path>
            <polygon id="Fill-38" fill="#0C2248" mask="url(#mask-6)" points="146.0004 47.6996 146.0004 42.8006 144.1994 42.8006 144.1994 41.6996 149.0004 41.6996 149.0004 42.8006 147.1994 42.8006 147.1994 47.6996"></polygon>
        </g>
    </g>
</svg>